<svg xmlns="http://www.w3.org/2000/svg" viewBox="0 0 1200 330" width="1200" height="330" role="img" aria-label="An illustration of four people seated at a table with one empty chair.">
<defs>
  <pattern id="dots" width="26" height="26" patternUnits="userSpaceOnUse">
    <circle cx="4" cy="4" r="2.6" fill="#141414" opacity=".2"/>
  </pattern>
</defs>
<rect width="1200" height="330" fill="#C7B9FF"/>
<rect width="1200" height="330" fill="url(#dots)"/>
<g><rect x="69" y="49" width="1080" height="250" rx="18" fill="#141414"/><rect x="60" y="40" width="1080" height="250" rx="18" fill="#FBF6EC" stroke="#141414" stroke-width="5" stroke-linecap="round" stroke-linejoin="round"/></g><circle cx="250" cy="118" r="30" fill="none" stroke="#141414" stroke-width="5" stroke-linecap="round" stroke-linejoin="round" opacity=".45"/><path d="M204 186c0-25 21-46 46-46s46 21 46 46" fill="none" stroke="#141414" stroke-width="5" stroke-linecap="round" stroke-linejoin="round" opacity=".45"/><circle cx="420" cy="118" r="30" fill="none" stroke="#141414" stroke-width="5" stroke-linecap="round" stroke-linejoin="round" opacity=".45"/><path d="M374 186c0-25 21-46 46-46s46 21 46 46" fill="none" stroke="#141414" stroke-width="5" stroke-linecap="round" stroke-linejoin="round" opacity=".45"/><circle cx="590" cy="118" r="30" fill="none" stroke="#141414" stroke-width="5" stroke-linecap="round" stroke-linejoin="round" opacity=".45"/><path d="M544 186c0-25 21-46 46-46s46 21 46 46" fill="none" stroke="#141414" stroke-width="5" stroke-linecap="round" stroke-linejoin="round" opacity=".45"/><circle cx="760" cy="118" r="30" fill="none" stroke="#141414" stroke-width="5" stroke-linecap="round" stroke-linejoin="round" opacity=".45"/><path d="M714 186c0-25 21-46 46-46s46 21 46 46" fill="none" stroke="#141414" stroke-width="5" stroke-linecap="round" stroke-linejoin="round" opacity=".45"/><path d="M140 198h700" stroke="#141414" stroke-width="9" stroke-linecap="round" stroke-linejoin="round"/><path d="M212 198v58M768 198v58" stroke="#141414" stroke-width="5" stroke-linecap="round" stroke-linejoin="round"/><g stroke="#FF8A5C" stroke-width="8" stroke-linecap="round" fill="none"><path d="M900 84v114"/><path d="M900 198h104"/><path d="M908 198v50M996 198v50"/></g><text x="952" y="278" text-anchor="middle" fill="#141414" opacity="0.85" font-family="Archivo Black, Arial Black, sans-serif" font-weight="800" font-size="26">yours</text></svg>
