<svg xmlns="http://www.w3.org/2000/svg" viewBox="0 0 1200 330" width="1200" height="330" role="img" aria-label="Three stylised tax forms.">
<defs>
  <pattern id="dots" width="26" height="26" patternUnits="userSpaceOnUse">
    <circle cx="4" cy="4" r="2.6" fill="#141414" opacity=".2"/>
  </pattern>
</defs>
<rect width="1200" height="330" fill="#9DB8FF"/>
<rect width="1200" height="330" fill="url(#dots)"/>
<g transform="rotate(-4 250.0 166.0)"><rect x="129" y="55" width="260" height="240" rx="18" fill="#141414"/><rect x="120" y="46" width="260" height="240" rx="18" fill="#FBF6EC" stroke="#141414" stroke-width="5" stroke-linecap="round" stroke-linejoin="round"/></g><g transform="rotate(2 600.0 156.0)"><rect x="479" y="45" width="260" height="240" rx="18" fill="#141414"/><rect x="470" y="36" width="260" height="240" rx="18" fill="#E4FF54" stroke="#141414" stroke-width="5" stroke-linecap="round" stroke-linejoin="round"/></g><g transform="rotate(-3 950.0 172.0)"><rect x="829" y="61" width="260" height="240" rx="18" fill="#141414"/><rect x="820" y="52" width="260" height="240" rx="18" fill="#FF8A5C" stroke="#141414" stroke-width="5" stroke-linecap="round" stroke-linejoin="round"/></g><g transform="rotate(-4 250 166)" opacity=".8"><path d="M164 104h170" stroke="#141414" stroke-width="7" stroke-linecap="round" stroke-linejoin="round"/><path d="M164 142h170" stroke="#141414" stroke-width="7" stroke-linecap="round" stroke-linejoin="round"/><path d="M164 180h170" stroke="#141414" stroke-width="7" stroke-linecap="round" stroke-linejoin="round"/><path d="M164 218h100" stroke="#141414" stroke-width="7" stroke-linecap="round" stroke-linejoin="round"/></g><g transform="rotate(2 600 166)" opacity=".8"><path d="M514 104h170" stroke="#141414" stroke-width="7" stroke-linecap="round" stroke-linejoin="round"/><path d="M514 142h170" stroke="#141414" stroke-width="7" stroke-linecap="round" stroke-linejoin="round"/><path d="M514 180h170" stroke="#141414" stroke-width="7" stroke-linecap="round" stroke-linejoin="round"/><path d="M514 218h100" stroke="#141414" stroke-width="7" stroke-linecap="round" stroke-linejoin="round"/></g><g transform="rotate(-3 950 166)" opacity=".8"><path d="M864 104h170" stroke="#141414" stroke-width="7" stroke-linecap="round" stroke-linejoin="round"/><path d="M864 142h170" stroke="#141414" stroke-width="7" stroke-linecap="round" stroke-linejoin="round"/><path d="M864 180h170" stroke="#141414" stroke-width="7" stroke-linecap="round" stroke-linejoin="round"/><path d="M864 218h100" stroke="#141414" stroke-width="7" stroke-linecap="round" stroke-linejoin="round"/></g></svg>
